<svg xmlns="http://www.w3.org/2000/svg" width="19.564" height="19.94" viewBox="0 0 19.564 19.94">
    <defs>
        <style>
            .prefix__cls-1{fill:#ffb900}
        </style>
    </defs>
    <g id="prefix__Artboard_122" data-name="Artboard 122" transform="rotate(16 7.388 15.705)">
        <path id="prefix__Path_339" d="M95.685 144.814c0-.167 0-.332.014-.5l-.8-.048q-.016.27-.016.544a9.038 9.038 0 0 0 4.226 7.669l.431-.68a8.239 8.239 0 0 1-3.855-6.985z" class="prefix__cls-1" data-name="Path 339" transform="translate(-94.88 -135.739)"/>
        <path id="prefix__Path_340" d="M289.979 152.22a8.278 8.278 0 0 1-4.279 7.243l.39.7a9.084 9.084 0 0 0 4.7-7.948z" class="prefix__cls-1" data-name="Path 340" transform="translate(-272.634 -143.145)"/>
        <path id="prefix__Path_341" d="M179.716 21.388a9.086 9.086 0 0 0-9.2-.831l.346.727a8.28 8.28 0 0 1 8.382.757z" class="prefix__cls-1" data-name="Path 341" transform="translate(-165.341 -19.68)"/>
        <path id="prefix__Path_342" d="M132.332 49.661l.154-.791a7.106 7.106 0 0 0-8.436 6.4l.8.064a6.3 6.3 0 0 1 7.479-5.672z" class="prefix__cls-1" data-name="Path 342" transform="translate(-122.053 -46.75)"/>
        <path id="prefix__Path_343" d="M236.377 137.636a6.3 6.3 0 0 1-5.323 7.13 6.574 6.574 0 0 1-.7.063l.027.8a7.307 7.307 0 0 0 .792-.068 7.105 7.105 0 0 0 6-8.045z" class="prefix__cls-1" data-name="Path 343" transform="translate(-221.074 -129.451)"/>
        <circle id="prefix__Ellipse_1" cx="4.936" cy="4.936" r="4.936" class="prefix__cls-1" data-name="Ellipse 1" transform="rotate(-76.48 9.633 4.379)"/>
    </g>
</svg>
